<svg xmlns="http://www.w3.org/2000/svg" viewBox="0 0 1024 1024">
    <path d="M0 0 v1024 h1024 v-1024 z" fill="#e45649" opacity=".3" />
    <path
        d="M512 938.666667C276.352 938.666667 85.333333 747.648 85.333333 512S276.352 85.333333 512 85.333333s426.666667 191.018667 426.666667 426.666667-191.018667 426.666667-426.666667 426.666667z m0-85.333334a341.333333 341.333333 0 1 0 0-682.666666 341.333333 341.333333 0 0 0 0 682.666666z m301.696-643.029333a42.666667 42.666667 0 0 1 0 60.330667L270.634667 813.696a42.666667 42.666667 0 0 1-60.330667-60.330667L753.365333 210.304a42.666667 42.666667 0 0 1 60.330667 0z"
        fill="#e45649" opacity=".3" />
</svg>